<mxfile host="app.diagrams.net" modified="2024-04-26T13:23:33.070Z" agent="Mozilla/5.0 (Windows NT 10.0; Win64; x64; rv:124.0) Gecko/20100101 Firefox/124.0" etag="PVBni8r6SYfKcKWpfAjY" version="24.3.0" type="device">
  <diagram name="Page-1" id="-9rCuACRTCd_MjDP4duQ">
    <mxGraphModel dx="1050" dy="530" grid="1" gridSize="10" guides="1" tooltips="1" connect="1" arrows="1" fold="1" page="1" pageScale="1" pageWidth="850" pageHeight="1100" math="0" shadow="0">
      <root>
        <mxCell id="0" />
        <mxCell id="1" parent="0" />
        <mxCell id="R6c0TeeFy3OxiM7cWo2J-1" value="" style="rounded=0;whiteSpace=wrap;html=1;" parent="1" vertex="1">
          <mxGeometry x="150" y="70" width="310" height="310" as="geometry" />
        </mxCell>
        <mxCell id="R6c0TeeFy3OxiM7cWo2J-3" value="&lt;div&gt;Application Web d&#39;aggrégateur RSS&lt;/div&gt;" style="text;html=1;align=center;verticalAlign=middle;whiteSpace=wrap;rounded=0;" parent="1" vertex="1">
          <mxGeometry x="247.5" y="40" width="115" height="30" as="geometry" />
        </mxCell>
        <mxCell id="R6c0TeeFy3OxiM7cWo2J-4" value="&lt;div&gt;Utilisateur&lt;/div&gt;" style="shape=umlActor;verticalLabelPosition=bottom;verticalAlign=top;html=1;outlineConnect=0;" parent="1" vertex="1">
          <mxGeometry x="570" y="195" width="30" height="60" as="geometry" />
        </mxCell>
        <mxCell id="R6c0TeeFy3OxiM7cWo2J-6" value="Authentification / Login&lt;br&gt;Create" style="ellipse;whiteSpace=wrap;html=1;" parent="1" vertex="1">
          <mxGeometry x="253.75" y="80" width="102.5" height="70" as="geometry" />
        </mxCell>
        <mxCell id="R6c0TeeFy3OxiM7cWo2J-7" value="Gestion des catégories/&lt;br&gt;Gestion des flux :&lt;br&gt;Créer&lt;br&gt;Lire&lt;br&gt;Modifier&lt;br&gt;Supprimer" style="ellipse;whiteSpace=wrap;html=1;" parent="1" vertex="1">
          <mxGeometry x="208.44" y="160" width="193.13" height="120" as="geometry" />
        </mxCell>
        <mxCell id="R6c0TeeFy3OxiM7cWo2J-9" value="Flux :&lt;br&gt;Dynamique avec liens" style="ellipse;whiteSpace=wrap;html=1;" parent="1" vertex="1">
          <mxGeometry x="253.75" y="290" width="102.5" height="70" as="geometry" />
        </mxCell>
        <mxCell id="R6c0TeeFy3OxiM7cWo2J-16" value="" style="endArrow=classic;html=1;rounded=0;entryX=1;entryY=0.5;entryDx=0;entryDy=0;exitX=0.5;exitY=0.5;exitDx=0;exitDy=0;exitPerimeter=0;" parent="1" target="R6c0TeeFy3OxiM7cWo2J-9" edge="1" source="R6c0TeeFy3OxiM7cWo2J-4">
          <mxGeometry width="50" height="50" relative="1" as="geometry">
            <mxPoint x="560" y="300" as="sourcePoint" />
            <mxPoint x="412" y="440" as="targetPoint" />
          </mxGeometry>
        </mxCell>
        <mxCell id="R6c0TeeFy3OxiM7cWo2J-17" value="" style="endArrow=classic;html=1;rounded=0;entryX=1;entryY=0.5;entryDx=0;entryDy=0;exitX=0.5;exitY=0.5;exitDx=0;exitDy=0;exitPerimeter=0;" parent="1" target="R6c0TeeFy3OxiM7cWo2J-7" edge="1" source="R6c0TeeFy3OxiM7cWo2J-4">
          <mxGeometry width="50" height="50" relative="1" as="geometry">
            <mxPoint x="560" y="300" as="sourcePoint" />
            <mxPoint x="366" y="335" as="targetPoint" />
          </mxGeometry>
        </mxCell>
        <mxCell id="R6c0TeeFy3OxiM7cWo2J-18" value="" style="endArrow=classic;html=1;rounded=0;entryX=1;entryY=0.5;entryDx=0;entryDy=0;exitX=0.5;exitY=0.5;exitDx=0;exitDy=0;exitPerimeter=0;" parent="1" target="R6c0TeeFy3OxiM7cWo2J-6" edge="1" source="R6c0TeeFy3OxiM7cWo2J-4">
          <mxGeometry width="50" height="50" relative="1" as="geometry">
            <mxPoint x="560" y="300" as="sourcePoint" />
            <mxPoint x="412" y="230" as="targetPoint" />
          </mxGeometry>
        </mxCell>
      </root>
    </mxGraphModel>
  </diagram>
</mxfile>
